<svg xmlns="http://www.w3.org/2000/svg" viewBox="0 0 1600 640" preserveAspectRatio="xMidYMid slice">
  <defs>
    <linearGradient id="night" x1="0" y1="0" x2="1" y2="1">
      <stop offset="0%" stop-color="#040b17" />
      <stop offset="100%" stop-color="#142845" />
    </linearGradient>
    <radialGradient id="glow" cx="0.5" cy="0.5" r="0.6">
      <stop offset="0%" stop-color="#72ffde" stop-opacity="0.75" />
      <stop offset="100%" stop-color="#72ffde" stop-opacity="0" />
    </radialGradient>
  </defs>
  <rect width="1600" height="640" fill="url(#night)" />
  <g opacity="0.8">
    <polygon points="0,480 1400,360 1600,420 1600,640 0,640" fill="#0b2744" />
    <polygon points="0,530 1250,420 1600,520 1600,640 0,640" fill="#12385f" opacity="0.7" />
    <polygon points="0,590 1100,510 1600,600 1600,640 0,640" fill="#1a4f7f" opacity="0.6" />
  </g>
  <g>
    <circle cx="420" cy="220" r="220" fill="url(#glow)" />
    <circle cx="1180" cy="180" r="180" fill="url(#glow)" opacity="0.7" />
  </g>
  <g fill="#6bd4ff" opacity="0.25">
    <rect x="260" y="170" width="360" height="48" rx="24" />
    <rect x="980" y="140" width="280" height="42" rx="21" />
    <rect x="720" y="320" width="540" height="62" rx="31" />
  </g>
</svg>
